<svg width="22" height="23" viewBox="0 0 22 23" fill="none" xmlns="http://www.w3.org/2000/svg">
<path d="M10.5 3.9C6.30934 3.9 2.9 7.30934 2.9 11.5C2.9 15.6907 6.30934 19.1 10.5 19.1C14.6907 19.1 18.1 15.6907 18.1 11.5C18.1 7.30934 14.6907 3.9 10.5 3.9ZM10.5 17.9625C6.9366 17.9625 4.0375 15.0634 4.0375 11.5C4.0375 7.9366 6.9366 5.0375 10.5 5.0375C14.0634 5.0375 16.9625 7.9366 16.9625 11.5C16.9625 15.0634 14.0634 17.9625 10.5 17.9625Z" fill="#9C9C9C" stroke="#9C9C9C" stroke-width="0.2"/>
<path d="M10.8688 11.3059V11.3473L10.898 11.3766L13.5025 13.9811L12.9811 14.5025L10.1313 11.6527V6.9125H10.8688V11.3059Z" fill="#9C9C9C" stroke="#9C9C9C" stroke-width="0.2"/>
</svg>
