<svg width="22" height="24" viewBox="0 0 22 24" fill="none" xmlns="http://www.w3.org/2000/svg">
<path d="M19.3224 4.06269L5.06239 18.3227C4.7046 18.6805 4.09743 18.6541 3.70711 18.2637C3.31678 17.8734 3.29038 17.2663 3.64818 16.9085L17.9082 2.64847C18.266 2.29067 18.8731 2.31707 19.2635 2.7074C19.6538 3.09772 19.6802 3.70489 19.3224 4.06269Z" fill="black"/>
<path d="M5.06244 2.64832L19.3224 16.9083C19.6802 17.2661 19.6538 17.8733 19.2635 18.2636C18.8732 18.6539 18.266 18.6803 17.9082 18.3225L3.64823 4.06253C3.29043 3.70474 3.31683 3.09757 3.70715 2.70725C4.09748 2.31692 4.70464 2.29052 5.06244 2.64832Z" fill="black"/>
</svg>
