<svg width="17" height="22" viewBox="0 0 17 22" fill="none" xmlns="http://www.w3.org/2000/svg">
<path d="M16.1301 15.2973C16.7171 12.6866 16.1034 10.0214 14.4493 7.98181L8.73977 0.938268C8.49965 0.611927 7.96606 0.611927 7.69926 0.938268L2.04311 7.98181C0.388949 10.0214 -0.22469 12.7138 0.362269 15.2973C0.922548 17.7993 2.55003 19.8389 4.81782 20.8995C5.88502 21.389 7.05894 21.661 8.25954 21.661C9.46013 21.661 10.6074 21.4162 11.7012 20.8995C13.9157 19.8389 15.5432 17.7993 16.1301 15.2973ZM11.1143 19.6485C10.2072 20.0564 9.24669 20.274 8.23285 20.274C7.21902 20.274 6.25854 20.0564 5.35142 19.6485C3.48382 18.7783 2.12315 17.065 1.64291 14.971C1.13599 12.7953 1.66959 10.5382 3.05694 8.82486L8.23285 2.434L13.4088 8.82486C14.7961 10.5382 15.3297 12.7953 14.8228 14.971C14.3426 17.065 12.9819 18.7783 11.1143 19.6485Z" fill="#56CCF2"/>
<path d="M13.0352 12.7953C12.6617 12.7953 12.3682 13.0944 12.3682 13.4752C12.3682 15.4332 10.7941 17.0377 8.87318 17.0377C8.49966 17.0377 8.20618 17.3369 8.20618 17.7176C8.20618 18.0983 8.49966 18.3975 8.87318 18.3975C11.5412 18.3975 13.7022 16.1947 13.7022 13.4752C13.7022 13.1216 13.4088 12.7953 13.0352 12.7953Z" fill="#56CCF2"/>
</svg>
