<svg width="17" height="22" viewBox="0 0 17 22" fill="none" xmlns="http://www.w3.org/2000/svg">
<path d="M9.86639 1.56729C9.59416 1.25467 9.20728 1.07629 8.80144 1.07629C8.3956 1.07629 8.00871 1.25467 7.73649 1.56729C5.72624 3.85404 1.03567 9.5709 1.03567 13.1253C1.03133 15.084 1.70195 16.9796 2.92625 18.4693C4.38132 20.268 6.52754 21.3066 8.78947 21.3066C11.0514 21.3066 13.1976 20.268 14.6527 18.4693C15.877 16.9796 16.5476 15.084 16.5433 13.1253C16.5672 9.5709 11.8766 3.85404 9.86639 1.56729ZM6.75529 18.9416C6.59862 18.6176 6.51669 18.2602 6.51598 17.8976C6.51598 17.0525 7.71255 15.7849 8.78947 14.8901C9.86639 15.76 11.063 17.0277 11.063 17.8976C11.0623 18.2602 10.9803 18.6176 10.8236 18.9416C10.7348 19.1303 10.6221 19.3058 10.4886 19.4636C9.40058 19.9729 8.15443 19.9729 7.0664 19.4636C6.94987 19.3028 6.85338 19.1275 6.77923 18.9416H6.75529ZM12.4749 17.4751C12.3498 17.7478 12.1974 18.0061 12.0202 18.2456C12.0339 18.1301 12.0419 18.014 12.0442 17.8976C12.0442 16.3566 10.0818 14.6415 9.24417 13.9953C8.9889 13.7964 8.63791 13.7964 8.38264 13.9953C7.54503 14.6415 5.58265 16.3566 5.58265 17.8976C5.5849 18.014 5.59289 18.1301 5.60658 18.2456C5.42938 18.0061 5.27697 17.7478 5.15188 17.4751C4.86825 16.889 4.72072 16.242 4.72112 15.586C4.72112 14.3184 6.15701 12.3796 8.55016 10.416C8.72502 10.2706 8.97358 10.2706 9.14844 10.416C11.5416 12.3796 12.9775 14.3184 12.9775 15.586C12.9779 16.242 12.8303 16.889 12.5467 17.4751H12.4749ZM13.9347 17.8231C13.5443 18.3057 13.0936 18.732 12.5946 19.0907C12.899 18.7386 13.1565 18.3457 13.3604 17.9225C13.709 17.197 13.8893 16.3969 13.8869 15.586C13.8869 13.3987 11.2544 10.9131 9.69887 9.64547C9.17884 9.22237 8.44797 9.22237 7.92794 9.64547C6.37239 10.938 3.73992 13.3987 3.73992 15.586C3.73746 16.3969 3.91777 17.197 4.26642 17.9225C4.46285 18.3443 4.71232 18.7371 5.00829 19.0907C4.50944 18.7318 4.05877 18.3055 3.66813 17.8231C2.59557 16.512 2.00987 14.8457 2.01686 13.1253C2.01686 9.81946 6.94675 3.95346 8.45443 2.2384C8.54479 2.13961 8.67024 2.08368 8.80144 2.08368C8.93264 2.08368 9.05808 2.13961 9.14844 2.2384C10.6561 3.95346 15.586 9.81946 15.586 13.1253C15.593 14.8457 15.0073 16.512 13.9347 17.8231Z" fill="#F2C94C" stroke="#F2C94C" stroke-width="0.3"/>
</svg>
