<svg width="57" height="57" viewBox="0 0 57 57" fill="none" xmlns="http://www.w3.org/2000/svg">
<rect width="57" height="57" rx="10" fill="#F0F0F0"/>
<g clip-path="url(#clip0)">
<path fill-rule="evenodd" clip-rule="evenodd" d="M36.6124 23.763C36.8093 24.2694 36.9468 24.8539 36.9843 25.704C37.0218 26.5574 37.0249 26.8293 37.0249 29.0016C37.0249 31.1739 37.0155 31.4458 36.9781 32.2991C36.9406 33.1492 36.803 33.7306 36.6062 34.2401C36.1904 35.3153 35.3403 36.1654 34.265 36.5812C33.7587 36.7781 33.1742 36.9156 32.3241 36.9531C31.4708 36.9907 31.1989 37 29.0266 37C26.8543 37 26.5823 36.9907 25.7291 36.9531C24.8788 36.9156 24.2975 36.7781 23.788 36.5812C23.2567 36.3812 22.7722 36.0654 22.3721 35.6591C21.9658 35.259 21.6501 34.7777 21.447 34.2401C21.25 33.7337 21.1124 33.1492 21.075 32.2991C21.0375 31.4458 21.0281 31.1739 21.0281 29.0016C21.0281 26.8293 21.0375 26.5574 21.0781 25.7009C21.1156 24.8507 21.2531 24.2694 21.45 23.7599C21.6501 23.2286 21.9658 22.7441 22.3721 22.344C22.7722 21.9345 23.2535 21.6219 23.7912 21.4188C24.2975 21.222 24.882 21.0844 25.7321 21.0469C26.5854 21.0094 26.8573 21 29.0296 21C31.2019 21 31.4738 21.0094 32.3303 21.0501C33.1805 21.0875 33.7619 21.225 34.2712 21.422C34.8026 21.6219 35.2871 21.9377 35.6872 22.344C36.0967 22.7441 36.4092 23.2254 36.6124 23.763ZM29.0296 24.8914C26.7605 24.8914 24.9195 26.7323 24.9195 29.0016C24.9195 31.2708 26.7605 33.1117 29.0296 33.1117C31.2989 33.1117 33.1398 31.2708 33.1398 29.0016C33.1398 26.7323 31.2989 24.8914 29.0296 24.8914ZM29.0296 31.6677C27.5576 31.6677 26.3635 30.4738 26.3635 29.0016C26.3635 27.5293 27.5576 26.3354 29.0296 26.3354C30.5019 26.3354 31.6958 27.5293 31.6958 29.0016C31.6958 30.4738 30.5019 31.6677 29.0296 31.6677ZM33.3023 25.6884C33.8324 25.6884 34.262 25.2588 34.262 24.7289C34.262 24.1989 33.8324 23.7693 33.3023 23.7693C32.7724 23.7693 32.3428 24.1989 32.3428 24.7289C32.3428 25.2588 32.7724 25.6884 33.3023 25.6884Z" fill="#828282"/>
</g>
<defs>
<clipPath id="clip0">
<rect width="16" height="16" fill="white" transform="translate(21 21)"/>
</clipPath>
</defs>
</svg>
