<svg width="16" height="23" viewBox="0 0 16 23" fill="none" xmlns="http://www.w3.org/2000/svg">
<path d="M9.09522 3.01301L2.1404 13.242H7.98923C8.15875 13.242 8.28539 13.4 8.25068 13.5682L6.91166 20.055L13.9374 9.9823H8.06936C7.90118 9.9823 7.77485 9.82667 7.80726 9.65942L9.09522 3.01301ZM1.63195 13.7835C1.41675 13.7835 1.28989 13.5387 1.412 13.3592L9.38531 1.63215C9.54974 1.3903 9.92321 1.54972 9.86736 1.83792L8.39404 9.44088H14.4533C14.67 9.44088 14.7965 9.68855 14.6715 9.86786L6.60467 21.4331C6.43736 21.673 6.06575 21.5089 6.1251 21.2214L7.66045 13.7835H1.63195Z" fill="#828282" stroke="#828282" stroke-width="1.1"/>
</svg>
