<svg width="174" height="16" viewBox="0 0 174 16" fill="none" xmlns="http://www.w3.org/2000/svg">
<g clip-path="url(#clip0)">
<path d="M67.5241 4.44287L63.1598 15.8502H60.5012L57.4438 7.98994L54.3431 15.8502H51.6785L47.347 4.44287H49.9608L53.0795 12.8605L56.3355 4.44287H58.6626L61.8529 12.9037L65.0641 4.44287H67.5241Z" fill="#302F3A"/>
<path d="M71.1792 15.2525C70.2422 14.7754 69.4632 14.0538 68.9313 13.1701C68.3838 12.2507 68.1041 11.2058 68.1218 10.1458C68.1036 9.08935 68.3834 8.048 68.9313 7.133C69.4661 6.25441 70.2446 5.53719 71.1792 5.06207C72.1855 4.57073 73.2976 4.3147 74.4255 4.3147C75.5535 4.3147 76.6656 4.57073 77.6719 5.06207C78.6065 5.53719 79.385 6.25441 79.9197 7.133C80.4672 8.04811 80.7465 9.08948 80.7278 10.1458C80.746 11.2057 80.4668 12.2506 79.9197 13.1701C79.3863 14.0541 78.6058 14.7757 77.6674 15.2525C76.6611 15.7439 75.549 15.9999 74.4211 15.9999C73.2931 15.9999 72.181 15.7439 71.1747 15.2525H71.1792ZM76.94 12.7323C77.6052 12.0775 77.9377 11.2134 77.9377 10.14C77.9377 9.06663 77.6052 8.20495 76.94 7.55496C76.6124 7.23173 76.2187 6.97755 75.784 6.80849C75.3493 6.63943 74.8829 6.55917 74.4143 6.57278C73.3957 6.57278 72.5578 6.90018 71.9006 7.55496C71.2434 8.20975 70.9143 9.07143 70.9133 10.14C70.9133 11.2086 71.2424 12.0727 71.9006 12.7323C72.5588 13.3919 73.3967 13.7193 74.4143 13.7145C74.8829 13.7284 75.3494 13.6483 75.7842 13.4792C76.219 13.3102 76.6126 13.0558 76.94 12.7323Z" fill="#302F3A"/>
<path d="M85.4698 15.2525C84.5323 14.7754 83.7529 14.0538 83.2204 13.1701C82.6733 12.2506 82.3942 11.2057 82.4124 10.1458C82.3936 9.08946 82.6729 8.0481 83.2204 7.13298C83.7556 6.2542 84.5346 5.53696 85.4698 5.06206C86.4758 4.57073 87.5877 4.3147 88.7154 4.3147C89.8431 4.3147 90.955 4.57073 91.961 5.06206C92.8961 5.53696 93.6752 6.2542 94.2104 7.13298C94.7578 8.0481 95.0371 9.08946 95.0184 10.1458C95.0366 11.2057 94.7574 12.2506 94.2104 13.1701C93.6779 14.0538 92.8984 14.7754 91.961 15.2525C90.955 15.7438 89.8431 15.9999 88.7154 15.9999C87.5877 15.9999 86.4758 15.7438 85.4698 15.2525ZM91.2291 12.7323C91.8953 12.0775 92.2278 11.2134 92.2268 10.14C92.2258 9.06662 91.8933 8.20733 91.2291 7.56215C90.9019 7.23881 90.5085 6.98455 90.074 6.81548C89.6395 6.6464 89.1733 6.56621 88.7049 6.57997C87.6853 6.57997 86.8469 6.90736 86.1897 7.56215C85.5325 8.21693 85.2039 9.07862 85.2039 10.1472C85.2039 11.2158 85.5325 12.0799 86.1897 12.7395C86.8469 13.399 87.6853 13.7264 88.7049 13.7216C89.1739 13.7348 89.6405 13.6537 90.0751 13.4833C90.5097 13.313 90.9027 13.0572 91.2291 12.7323Z" fill="#302F3A"/>
<path d="M109.263 0V15.8502H106.606V14.377C106.155 14.9131 105.572 15.3315 104.91 15.5939C104.204 15.8711 103.446 16.0092 102.683 16C101.614 16.0177 100.557 15.7697 99.6155 15.2799C98.7137 14.8033 97.9717 14.0883 97.4767 13.2191C96.9471 12.2791 96.6799 11.2225 96.7015 10.153C96.679 9.08705 96.9462 8.03396 97.4767 7.09847C97.9751 6.23002 98.7195 5.51625 99.623 5.0405C100.565 4.55075 101.621 4.30278 102.691 4.32043C103.427 4.31129 104.157 4.44195 104.84 4.70495C105.482 4.95405 106.052 5.34935 106.501 5.85707V0H109.263ZM104.81 13.2767C105.344 12.9825 105.782 12.5493 106.072 12.0266C106.393 11.4492 106.553 10.8019 106.538 10.1473C106.551 9.49506 106.391 8.85052 106.072 8.27507C105.782 7.75239 105.344 7.31918 104.81 7.02502C104.26 6.73839 103.644 6.58832 103.018 6.58832C102.392 6.58832 101.776 6.73839 101.226 7.02502C100.691 7.3194 100.254 7.75253 99.962 8.27507C99.6446 8.85088 99.4847 9.49526 99.4975 10.1473C99.4831 10.8017 99.643 11.4488 99.962 12.0266C100.254 12.5492 100.691 12.9823 101.226 13.2767C101.776 13.5633 102.392 13.7134 103.018 13.7134C103.644 13.7134 104.26 13.5633 104.81 13.2767Z" fill="#302F3A"/>
<path d="M113.739 15.6372C112.959 15.4539 112.217 15.1432 111.545 14.7184L112.609 12.6892C113.2 13.057 113.847 13.3343 114.526 13.5116C115.242 13.7158 115.983 13.8215 116.73 13.8255C118.384 13.8255 119.211 13.4055 119.21 12.5654C119.21 12.1665 119.001 11.89 118.58 11.733C117.921 11.5213 117.242 11.3708 116.553 11.2837C115.745 11.1776 114.946 11.0135 114.164 10.7926C113.553 10.6085 113.003 10.2733 112.568 9.82047C112.117 9.35866 111.892 8.71444 111.893 7.88779C111.893 6.80481 112.362 5.94072 113.3 5.29553C114.238 4.65035 115.507 4.32536 117.106 4.32056C117.926 4.32164 118.744 4.411 119.543 4.58698C120.243 4.72505 120.916 4.96802 121.537 5.30706L120.474 7.32758C119.444 6.75479 118.272 6.46213 117.083 6.48077C116.273 6.48077 115.657 6.5979 115.234 6.83217C114.812 7.06643 114.602 7.37654 114.603 7.7625C114.603 8.18878 114.828 8.49121 115.279 8.66979C115.957 8.90487 116.657 9.07279 117.37 9.17096C118.157 9.27965 118.934 9.44427 119.696 9.66349C120.292 9.84246 120.83 10.1663 121.258 10.6039C121.692 11.0446 121.91 11.6687 121.911 12.4761C121.911 13.5437 121.431 14.3982 120.471 15.0395C119.511 15.6809 118.204 16.0011 116.55 16.0001C115.601 16.0012 114.655 15.8792 113.739 15.6372Z" fill="#302F3A"/>
<path d="M131.418 15.231C131.068 15.4996 130.665 15.6957 130.233 15.807C129.754 15.9368 129.258 16.0012 128.76 15.9986C127.459 15.9986 126.454 15.6712 125.746 15.0164C125.038 14.3616 124.684 13.4078 124.683 12.1548V6.665H122.741V4.52927H124.683V1.92261H127.452V4.52927H130.62V6.665H127.452V12.0972C127.452 12.6517 127.592 13.0765 127.873 13.3689C128.154 13.6612 128.56 13.8009 129.092 13.8009C129.649 13.821 130.197 13.6551 130.642 13.3314L131.418 15.231Z" fill="#302F3A"/>
<path d="M135.384 15.2525C134.447 14.7754 133.667 14.0538 133.135 13.1701C132.588 12.2506 132.309 11.2057 132.327 10.1458C132.308 9.08946 132.587 8.0481 133.135 7.13298C133.67 6.2542 134.449 5.53696 135.384 5.06206C136.39 4.57073 137.502 4.3147 138.63 4.3147C139.758 4.3147 140.869 4.57073 141.876 5.06206C142.814 5.53627 143.595 6.25412 144.132 7.13442C144.68 8.04954 144.959 9.0909 144.94 10.1472C144.959 11.2071 144.679 12.252 144.132 13.1715C143.6 14.0553 142.82 14.7769 141.883 15.254C140.877 15.7453 139.765 16.0013 138.637 16.0013C137.51 16.0013 136.398 15.7453 135.392 15.254L135.384 15.2525ZM141.145 12.7323C141.81 12.0775 142.142 11.2134 142.141 10.14C142.14 9.06662 141.808 8.20733 141.145 7.56215C140.817 7.23891 140.424 6.98473 139.989 6.81567C139.554 6.64662 139.088 6.56636 138.619 6.57997C137.599 6.57997 136.76 6.90736 136.104 7.56215C135.448 8.21693 135.119 9.07862 135.118 10.1472C135.118 11.2158 135.447 12.0799 136.104 12.7395C136.761 13.399 137.6 13.7264 138.619 13.7216C139.089 13.7347 139.555 13.6534 139.99 13.4831C140.425 13.3128 140.818 13.0571 141.145 12.7323Z" fill="#302F3A"/>
<path d="M157.893 5.57483C158.789 6.41588 159.237 7.664 159.237 9.31921V15.856H156.468V9.6634C156.468 8.66682 156.224 7.91555 155.736 7.40958C155.248 6.90361 154.554 6.65062 153.654 6.65062C152.635 6.65062 151.83 6.94633 151.239 7.53775C150.647 8.12917 150.355 8.97694 150.361 10.081V15.8488H147.591V4.44288H150.228V5.91759C150.691 5.38607 151.285 4.97469 151.956 4.72083C152.704 4.44311 153.502 4.30717 154.304 4.32047C155.796 4.32047 156.993 4.73859 157.893 5.57483Z" fill="#302F3A"/>
<path d="M173.955 11.0012H164.672C164.81 11.8021 165.267 12.5193 165.947 12.9986C166.634 13.4893 167.486 13.735 168.505 13.736C169.8 13.736 170.87 13.3232 171.718 12.4975L173.202 14.1421C172.662 14.7608 171.968 15.2382 171.186 15.5304C170.188 15.8825 169.128 16.0393 168.066 15.9916C167.005 15.9438 165.964 15.6926 165.004 15.2525C164.049 14.7847 163.253 14.0618 162.711 13.17C162.164 12.2505 161.885 11.2056 161.903 10.1457C161.887 9.09609 162.158 8.06087 162.689 7.14446C163.2 6.26703 163.957 5.54555 164.873 5.06201C165.837 4.55674 166.921 4.3012 168.018 4.32034C169.097 4.30255 170.162 4.55619 171.108 5.05625C172.007 5.5382 172.745 6.25704 173.235 7.12862C173.761 8.07617 174.025 9.1377 174.005 10.212C174.005 10.3963 173.985 10.657 173.955 11.0012ZM165.769 7.20927C165.151 7.7252 164.752 8.44332 164.65 9.22547H171.371C171.282 8.44019 170.887 7.71685 170.266 7.2015C169.645 6.68614 168.844 6.41717 168.026 6.44887C167.202 6.42514 166.398 6.69598 165.769 7.20927Z" fill="#302F3A"/>
<path d="M17.1316 11.5802L12.7524 15.146H19.3765C20.4491 15.1459 21.487 14.7801 22.3069 14.1134L26.6862 10.5476H20.0621C18.9894 10.5471 17.9512 10.9129 17.1316 11.5802Z" fill="#6EBC61"/>
<path d="M7.30968 10.5461C6.23683 10.5461 5.19862 10.9124 4.37924 11.5802L0 15.146H6.62412C7.69821 15.1468 8.73795 14.781 9.55904 14.1134L13.9338 10.5461H7.30968Z" fill="#C6C6C6"/>
<path d="M19.3765 8.40746C20.4491 8.40745 21.4871 8.04169 22.3069 7.37488L26.6862 3.80908H20.0621C18.9895 3.80909 17.9515 4.17485 17.1316 4.84167L12.7524 8.40746H19.3765Z" fill="#6EBC61"/>
<path d="M32.8145 3.80908C31.7419 3.80909 30.7039 4.17485 29.8841 4.84167L25.5048 8.40746H32.1289C33.2015 8.40745 34.2395 8.04169 35.0594 7.37488L39.4386 3.80908H32.8145Z" fill="#6EBC61"/>
<path d="M9.55904 7.37488L13.9338 3.80908H7.30968C6.2371 3.80909 5.19909 4.17485 4.37924 4.84166L0 8.40746H6.62412C7.69824 8.40847 8.73801 8.04265 9.55904 7.37488Z" fill="#6EBC61"/>
</g>
<defs>
<clipPath id="clip0">
<rect width="174" height="16" fill="white"/>
</clipPath>
</defs>
</svg>
