<svg width="22" height="24" viewBox="0 0 22 24" fill="none" xmlns="http://www.w3.org/2000/svg">
<path d="M21.0833 11.3125H0.916667C0.410665 11.3125 0 10.8645 0 10.3125C0 9.7605 0.410665 9.3125 0.916667 9.3125H21.0833C21.5893 9.3125 22 9.7605 22 10.3125C22 10.8645 21.5893 11.3125 21.0833 11.3125Z" fill="black"/>
<path d="M21.0833 5.3125H0.916667C0.410665 5.3125 0 4.8645 0 4.3125C0 3.7605 0.410665 3.3125 0.916667 3.3125H21.0833C21.5893 3.3125 22 3.7605 22 4.3125C22 4.8645 21.5893 5.3125 21.0833 5.3125Z" fill="black"/>
<path d="M21.0833 17.3125H0.916667C0.410665 17.3125 0 16.8645 0 16.3125C0 15.7605 0.410665 15.3125 0.916667 15.3125H21.0833C21.5893 15.3125 22 15.7605 22 16.3125C22 16.8645 21.5893 17.3125 21.0833 17.3125Z" fill="black"/>
</svg>
