<svg width="32" height="32" viewBox="0 0 32 32" fill="none" xmlns="http://www.w3.org/2000/svg">
<rect width="32" height="32" rx="16" fill="#6EBC61"/>
<path d="M23.1276 22.4985C23.2163 21.9143 23.0768 21.3272 22.735 20.8453C22.0657 19.9016 21.4661 19.3166 20.848 19.0042C19.9964 18.5738 19.1173 18.6529 18.2353 19.2395C18.234 19.2404 18.2327 19.2413 18.2313 19.2422L17.2906 19.8789C16.8482 19.5063 16.0012 18.7117 15.1575 17.4751L15.095 17.3835C14.2511 16.1467 13.8202 15.0681 13.6348 14.5209L14.5708 13.8771C14.5721 13.8762 14.5734 13.8753 14.5747 13.8744C15.4426 13.2672 15.8369 12.4775 15.7467 11.5275C15.6812 10.8381 15.3552 10.0664 14.7206 9.09905C14.3966 8.60506 13.9008 8.2611 13.3245 8.13059C12.7478 7.99999 12.1525 8.09687 11.6472 8.40311L11.6275 8.41506C11.6184 8.42059 11.6094 8.42638 11.6006 8.43239C10.578 9.1301 9.89966 10.2491 9.63891 11.6685C9.196 14.0797 9.99967 17.0846 11.7887 19.7066C12.126 20.2011 12.5209 20.7019 12.9625 21.1953C13.1821 21.4407 13.5591 21.4616 13.8045 21.242C14.0499 21.0224 14.0708 20.6454 13.8512 20.4C13.4444 19.9454 13.0819 19.486 12.7738 19.0345C11.1579 16.6661 10.4245 13.9931 10.8119 11.884C11.0127 10.7909 11.5134 9.94136 12.2601 9.42619L12.2654 9.42299C12.7635 9.12112 13.4039 9.26616 13.7234 9.75322C14.9434 11.613 14.6932 12.335 13.8931 12.8958L12.6002 13.785C12.3975 13.9244 12.3012 14.1741 12.3578 14.4136C12.3737 14.4807 12.7624 16.0808 14.11 18.0559L14.1726 18.1475C15.52 20.1224 16.8681 21.0678 16.9248 21.1071C17.1271 21.2472 17.3947 21.2486 17.5985 21.1107L18.898 20.2311C19.7121 19.6906 20.4756 19.7211 21.7622 21.5352C22.0992 22.0103 22.0007 22.6596 21.5381 23.0132L21.533 23.017C20.7871 23.5203 19.8233 23.6783 18.7431 23.4742C18.7342 23.4726 18.7253 23.4709 18.7163 23.4691C17.8537 23.3018 16.8986 22.8762 15.9542 22.2386C15.6813 22.0543 15.3106 22.1262 15.1263 22.3991C14.942 22.6721 15.0139 23.0427 15.2868 23.227C16.3784 23.9641 17.4558 24.4394 18.4892 24.64C18.5002 24.6421 18.5111 24.6441 18.522 24.6462C19.9258 24.9113 21.2032 24.6859 22.2179 23.9936C22.2267 23.9876 22.2353 23.9814 22.2438 23.9749L22.2622 23.9608C22.7316 23.602 23.039 23.0827 23.1276 22.4985Z" fill="white"/>
</svg>
