<svg width="19" height="22" viewBox="0 0 19 22" fill="none" xmlns="http://www.w3.org/2000/svg">
<path d="M6.25427 11.11C6.25427 11.2476 6.32263 11.3655 6.41378 11.4638L8.46456 13.2329C8.66964 13.4099 9.05701 13.4099 9.26209 13.2329L12.9991 10.0091C13.113 9.91086 13.1586 9.79291 13.1586 9.65531C13.1586 9.51771 13.0902 9.39977 12.9991 9.30148C12.7712 9.10491 12.4066 9.10491 12.2015 9.30148L8.87472 12.1911L7.23409 10.7758C7.12016 10.6775 6.98344 10.6382 6.82393 10.6382C6.68722 10.6382 6.52771 10.6775 6.41378 10.7758C6.32263 10.8741 6.25427 10.992 6.25427 11.11Z" fill="#6EBC61" stroke="#6EBC61" stroke-width="0.6"/>
<path d="M17.8609 4.19857C17.7979 4.19857 16.496 3.9739 14.8582 3.46328C13.3673 2.9935 11.3094 2.15608 9.98651 0.869313C9.79752 0.685489 9.48254 0.685489 9.29355 0.869313C7.97065 2.15608 5.9128 2.9935 4.4219 3.46328C2.78402 3.9739 1.48211 4.19857 1.41912 4.19857C1.18813 4.23942 0.999146 4.44367 0.999146 4.66835V12.92C0.999146 12.9404 0.999146 12.9813 0.999146 13.0017C1.04114 13.1651 1.90208 17.2501 9.39855 20.8857C9.41955 20.8857 9.48254 20.9062 9.50354 20.9266C9.54554 20.947 9.58753 20.947 9.62953 20.947C9.67153 20.947 9.71352 20.947 9.75552 20.9266C9.75552 20.9266 9.83952 20.9062 9.86051 20.8857C17.357 17.2705 18.2389 13.1855 18.2599 13.0017C18.2599 12.9813 18.2599 12.9404 18.2599 12.92V4.66835C18.2599 4.44367 18.0919 4.23942 17.8609 4.19857ZM17.273 5.07685V12.8792C17.168 13.2877 16.0971 16.7395 9.62953 19.9258C3.16199 16.719 2.09107 13.2468 1.98608 12.8792V5.07685C3.22499 4.85217 7.1937 3.95347 9.62953 1.87013C12.0654 3.95347 16.0341 4.83175 17.273 5.07685Z" fill="#6EBC61" stroke="#6EBC61" stroke-width="0.6"/>
</svg>
