<svg width="74" height="74" viewBox="0 0 74 74" fill="none" xmlns="http://www.w3.org/2000/svg">
<path d="M65.1304 67.0721C53.9286 76.309 18.9517 76.309 7.97845 67.0721C-3.22332 57.8351 -2.0803 18.3473 7.97845 7.95576C18.0372 -2.43577 55.0716 -2.43577 65.1304 7.95576C75.1891 18.3473 76.3321 57.8353 65.1304 67.0721Z" fill="#6EBC61"/>
<g opacity="0.2">
<path opacity="0.2" d="M36.8312 50.855C26.7724 58.9373 15.5707 63.0939 5.05477 63.3248C-2.71795 49.9313 -1.11763 17.3712 8.02668 7.90336C16.2565 -0.640757 42.0892 -2.25729 56.9487 3.05392C60.6063 18.2949 53.0624 37.6923 36.8312 50.855Z" fill="white"/>
</g>
<path d="M32.7792 50.6584C31.6257 50.6584 30.4723 50.2012 29.8131 49.2869L20.5854 38.3149C19.2671 36.791 19.5967 34.6576 21.2445 33.4385C22.8923 32.2194 25.1993 32.5242 26.5176 34.0481L32.7792 41.5151L46.621 24.9048C47.9392 23.3809 50.2462 23.0761 51.894 24.2952C53.5418 25.5143 53.8714 27.6478 52.5531 29.1716L35.7453 49.2869C34.9214 50.0488 33.9327 50.6584 32.7792 50.6584Z" fill="white"/>
</svg>
