<svg width="57" height="57" viewBox="0 0 57 57" fill="none" xmlns="http://www.w3.org/2000/svg">
<rect width="57" height="57" rx="10" fill="#F0F0F0"/>
<g clip-path="url(#clip0)">
<path d="M34.2767 29.6853C34.018 29.3586 34.092 29.2133 34.2767 28.9213C34.28 28.9179 36.4153 25.9673 36.6353 24.9666L36.6367 24.9659C36.746 24.6013 36.6367 24.3333 36.108 24.3333H34.3587C33.9133 24.3333 33.708 24.5633 33.598 24.8206C33.598 24.8206 32.7073 26.9526 31.4473 28.3346C31.0407 28.7339 30.8527 28.8619 30.6307 28.8619C30.5213 28.8619 30.3513 28.7339 30.3513 28.3693V24.9659C30.3513 24.5286 30.2267 24.3333 29.858 24.3333H27.1073C26.828 24.3333 26.662 24.5373 26.662 24.7273C26.662 25.1419 27.292 25.2373 27.3573 26.4039V28.9353C27.3573 29.4899 27.2567 29.5919 27.0333 29.5919C26.4387 29.5919 24.9953 27.4513 24.14 25.0013C23.9673 24.5259 23.7987 24.3339 23.35 24.3339H21.6C21.1007 24.3339 21 24.5639 21 24.8213C21 25.2759 21.5947 27.5366 23.7653 30.5233C25.212 32.5619 27.2493 33.6666 29.1027 33.6666C30.2167 33.6666 30.3527 33.4213 30.3527 32.9993C30.3527 31.0513 30.252 30.8673 30.81 30.8673C31.0687 30.8673 31.514 30.9953 32.554 31.9786C33.7427 33.1446 33.938 33.6666 34.6033 33.6666H36.3527C36.8513 33.6666 37.104 33.4213 36.9587 32.9373C36.626 31.9193 34.378 29.8253 34.2767 29.6853Z" fill="#828282"/>
</g>
<defs>
<clipPath id="clip0">
<rect width="16" height="16" fill="white" transform="translate(21 21)"/>
</clipPath>
</defs>
</svg>
