<svg width="302" height="302" viewBox="0 0 302 302" fill="none" xmlns="http://www.w3.org/2000/svg">
<g clip-path="url(#clip0)">
<path d="M301.5 0H0V301.5H301.5V0Z" fill="#6EBC61"/>
<path d="M148.52 160.669L135.32 171.819H155.32C158.552 171.816 161.679 170.673 164.15 168.589L177.35 157.439H157.35C154.117 157.438 150.989 158.583 148.52 160.669Z" fill="white"/>
<path opacity="0.5" d="M118.91 157.439C115.677 157.438 112.549 158.583 110.08 160.669L96.8799 171.819H116.88C120.112 171.816 123.239 170.673 125.71 168.589L138.91 157.439H118.91Z" fill="white"/>
<path d="M155.29 150.749C158.523 150.75 161.651 149.606 164.12 147.519L177.32 136.369H157.32C154.085 136.371 150.954 137.515 148.48 139.599L135.28 150.749H155.29Z" fill="white"/>
<path d="M195.8 136.369C192.578 136.379 189.463 137.523 187 139.599L173.79 150.749H193.79C197.023 150.75 200.151 149.606 202.62 147.519L215.83 136.369H195.8Z" fill="white"/>
<path d="M125.68 147.519L138.88 136.369H118.88C115.648 136.372 112.521 137.516 110.05 139.599L96.8501 150.749H116.85C120.083 150.75 123.211 149.606 125.68 147.519Z" fill="white"/>
<path d="M245.37 202.341L225.9 187.001L227.52 182.001L244.61 181.241L231.25 170.491L232.87 165.491L257.61 164.561L256 169.511L237.79 170.051L252.13 181.431L250.71 185.781L232.38 186.421L246.83 197.741L245.37 202.341Z" fill="white"/>
<path d="M218.79 200.209C220.726 199.439 222.839 199.224 224.89 199.589C227.002 200.018 228.971 200.977 230.61 202.377C232.249 203.777 233.505 205.57 234.26 207.589C234.941 209.554 235.062 211.67 234.61 213.699C234.089 215.851 233.07 217.851 231.635 219.537C230.201 221.224 228.39 222.55 226.35 223.409C224.422 224.182 222.316 224.4 220.27 224.039C218.157 223.611 216.188 222.652 214.549 221.253C212.91 219.853 211.654 218.059 210.9 216.039C210.202 214.075 210.074 211.953 210.53 209.919C211.045 207.765 212.062 205.762 213.497 204.075C214.932 202.388 216.746 201.063 218.79 200.209ZM215.37 212.159C215.668 214.065 216.639 215.802 218.106 217.054C219.574 218.307 221.441 218.993 223.37 218.989C224.289 218.925 225.186 218.671 226.002 218.242C226.818 217.814 227.536 217.22 228.11 216.499C228.727 215.82 229.195 215.019 229.483 214.147C229.77 213.275 229.872 212.353 229.78 211.439C229.475 209.537 228.503 207.805 227.037 206.555C225.57 205.305 223.707 204.619 221.78 204.619C220.864 204.677 219.969 204.925 219.155 205.349C218.34 205.772 217.623 206.362 217.05 207.079C216.435 207.765 215.969 208.57 215.68 209.444C215.391 210.318 215.285 211.243 215.37 212.159Z" fill="white"/>
<path d="M199.07 219.61C201.16 219.496 203.24 219.974 205.07 220.99C206.954 222.052 208.515 223.604 209.59 225.48C210.722 227.309 211.334 229.411 211.36 231.56C211.371 233.638 210.803 235.678 209.72 237.45C208.557 239.342 206.933 240.907 205 242C203.106 243.181 200.948 243.868 198.72 244C196.648 244.105 194.588 243.631 192.77 242.63C190.886 241.581 189.326 240.035 188.26 238.16C187.126 236.325 186.507 234.218 186.47 232.06C186.454 229.977 187.018 227.931 188.1 226.15C189.291 224.274 190.908 222.706 192.819 221.573C194.731 220.44 196.883 219.774 199.1 219.63L199.07 219.61ZM191.97 229.81C191.631 231.715 191.99 233.677 192.979 235.339C193.969 237.001 195.524 238.251 197.36 238.86C198.25 239.1 199.181 239.15 200.092 239.009C201.003 238.868 201.874 238.538 202.65 238.04C203.454 237.599 204.157 236.994 204.712 236.263C205.267 235.533 205.661 234.694 205.87 233.8C206.192 231.896 205.827 229.94 204.84 228.28C203.852 226.62 202.307 225.366 200.48 224.74C198.681 224.318 196.788 224.61 195.201 225.556C193.613 226.502 192.455 228.027 191.97 229.81Z" fill="white"/>
<path d="M161.65 265.759L155.48 234.049L160.6 233.049L161.18 235.999C161.836 234.757 162.796 233.701 163.97 232.929C165.223 232.102 166.632 231.541 168.11 231.279C170.168 230.842 172.304 230.946 174.31 231.579C176.236 232.193 177.947 233.345 179.24 234.899C180.592 236.598 181.513 238.597 181.928 240.728C182.342 242.859 182.237 245.058 181.62 247.139C180.996 249.055 179.845 250.756 178.3 252.049C176.674 253.384 174.732 254.28 172.66 254.649C171.244 254.934 169.786 254.934 168.37 254.649C167.034 254.386 165.78 253.81 164.71 252.969L167 264.719L161.65 265.759ZM165.07 237.529C164.144 238.32 163.466 239.362 163.12 240.529C162.76 241.81 162.705 243.157 162.958 244.462C163.212 245.768 163.767 246.996 164.58 248.049C165.352 248.975 166.367 249.667 167.51 250.049C168.685 250.416 169.933 250.484 171.141 250.249C172.349 250.013 173.479 249.48 174.43 248.699C175.347 247.9 176.022 246.861 176.38 245.699C176.74 244.418 176.795 243.07 176.539 241.764C176.284 240.458 175.726 239.23 174.91 238.179C174.142 237.253 173.131 236.561 171.99 236.179C170.82 235.786 169.566 235.717 168.36 235.979C167.145 236.194 166.009 236.729 165.07 237.529Z" fill="white"/>
<path d="M147 234C148.478 234.549 149.852 235.347 151.06 236.36L148.51 240.22C147.457 239.336 146.273 238.621 145 238.1C143.651 237.524 142.227 237.144 140.77 236.97C137.543 236.597 135.83 237.263 135.63 238.97C135.572 239.343 135.638 239.724 135.819 240.055C136 240.386 136.285 240.648 136.63 240.8C137.869 241.373 139.158 241.832 140.48 242.17C142.027 242.564 143.541 243.076 145.01 243.7C146.163 244.207 147.16 245.011 147.9 246.03C148.707 247.219 149.016 248.676 148.76 250.09C148.665 251.13 148.308 252.128 147.722 252.992C147.136 253.856 146.341 254.557 145.41 255.03C143.043 256.192 140.37 256.581 137.77 256.14C136.167 255.95 134.591 255.581 133.07 255.04C131.739 254.608 130.484 253.97 129.35 253.15L131.9 249.28C133.773 250.679 135.993 251.54 138.32 251.77C139.555 251.991 140.825 251.891 142.01 251.48C142.39 251.355 142.728 251.125 142.984 250.817C143.24 250.51 143.405 250.137 143.46 249.74C143.519 249.331 143.442 248.914 143.242 248.553C143.042 248.192 142.728 247.906 142.35 247.74C141.071 247.107 139.731 246.608 138.35 246.25C136.838 245.854 135.357 245.346 133.92 244.73C132.799 244.23 131.825 243.452 131.09 242.47C130.31 241.311 130.013 239.894 130.26 238.52C130.364 237.485 130.732 236.495 131.329 235.644C131.926 234.793 132.733 234.109 133.67 233.66C136.127 232.511 138.877 232.141 141.55 232.6C143.422 232.818 145.255 233.289 147 234Z" fill="white"/>
<path d="M113.16 226.26C113.998 225.989 114.884 225.897 115.76 225.99C116.733 226.075 117.689 226.297 118.6 226.65C120.675 227.293 122.412 228.731 123.43 230.65C123.841 231.634 124.042 232.692 124.021 233.758C124.001 234.823 123.759 235.873 123.31 236.84L119.31 247.3L122.89 248.66L121.34 252.73L117.76 251.37L115.88 256.37L110.79 254.44L112.68 249.44L106.86 247.23L108.4 243.16L114.23 245.37L118.18 235C118.569 234.144 118.619 233.172 118.32 232.28C118.139 231.879 117.873 231.522 117.542 231.232C117.211 230.942 116.822 230.727 116.4 230.6C115.39 230.173 114.264 230.106 113.21 230.41L113.16 226.26Z" fill="white"/>
<path d="M106.32 222.18C107.222 224.043 107.585 226.121 107.37 228.18C107.099 230.316 106.289 232.347 105.015 234.083C103.741 235.819 102.046 237.201 100.09 238.1C98.1821 238.92 96.0832 239.19 94.0299 238.88C91.8486 238.556 89.7847 237.686 88.0299 236.35C86.2148 235.065 84.7503 233.346 83.7699 231.35C82.8674 229.487 82.5004 227.41 82.7099 225.35C82.9268 223.219 83.7183 221.187 84.9999 219.47C86.2541 217.722 87.9528 216.341 89.9199 215.47C91.8321 214.641 93.9383 214.364 95.9999 214.67C98.1863 215.028 100.257 215.898 102.044 217.208C103.83 218.518 105.282 220.232 106.28 222.21L106.32 222.18ZM94.1599 219.63C92.2731 220.059 90.6039 221.153 89.458 222.712C88.312 224.271 87.766 226.191 87.9199 228.12C88.0508 229.032 88.3689 229.907 88.8542 230.69C89.3395 231.473 89.9816 232.147 90.7399 232.67C91.4606 233.241 92.2932 233.655 93.1838 233.884C94.0743 234.113 95.0031 234.152 95.9099 234C97.7878 233.556 99.4462 232.458 100.588 230.902C101.729 229.346 102.28 227.435 102.14 225.51C101.83 223.685 100.821 222.052 99.3279 220.958C97.8344 219.864 95.9736 219.395 94.1399 219.65L94.1599 219.63Z" fill="white"/>
<path d="M60.0001 201.579C60.4267 199.159 62.0301 196.999 64.8101 195.099L75.8101 187.609L78.8701 192.109L68.4301 199.209C66.9847 200.036 65.9111 201.385 65.4301 202.979C65.2873 203.718 65.3026 204.479 65.4749 205.211C65.6473 205.944 65.9728 206.632 66.4301 207.229C66.8832 207.977 67.4872 208.622 68.2034 209.123C68.9197 209.624 69.7325 209.97 70.5901 210.139C71.545 210.267 72.5158 210.202 73.4451 209.948C74.3744 209.694 75.2432 209.255 76.0001 208.659L85.7101 202.049L88.7701 206.549L69.5101 219.619L66.6001 215.339L69.0801 213.649C67.6737 213.504 66.3261 213.009 65.1601 212.209C63.8581 211.318 62.7437 210.18 61.8801 208.859C61.1014 207.83 60.5344 206.657 60.2117 205.407C59.889 204.158 59.8171 202.857 60.0001 201.579Z" fill="white"/>
<path d="M58.27 163.001L62.93 180.631C64.4407 179.957 65.6235 178.713 66.22 177.171C66.8516 175.49 66.9113 173.649 66.39 171.931C66.135 170.794 65.6482 169.723 64.9599 168.783C64.2716 167.844 63.3967 167.057 62.39 166.471L64.89 162.801C66.3802 163.499 67.6675 164.566 68.63 165.901C69.8271 167.612 70.6702 169.546 71.1098 171.587C71.5494 173.629 71.5767 175.738 71.19 177.791C70.7335 179.855 69.692 181.743 68.19 183.231C66.6535 184.748 64.7362 185.822 62.64 186.341C60.5794 186.918 58.403 186.942 56.33 186.411C54.3455 185.89 52.545 184.827 51.13 183.341C49.6711 181.763 48.6386 179.839 48.13 177.751C47.5569 175.711 47.5259 173.556 48.04 171.501C48.5322 169.543 49.573 167.767 51.04 166.381C52.6482 164.892 54.6103 163.838 56.74 163.321C57.06 163.251 57.58 163.141 58.27 163.001ZM54.91 180.521C56.2352 181.427 57.8485 181.812 59.44 181.601L56.08 168.841C54.5863 169.432 53.3668 170.558 52.66 172.001C52.0042 173.472 51.8697 175.123 52.2787 176.681C52.6878 178.239 53.616 179.611 54.91 180.571V180.521Z" fill="white"/>
<path d="M56.1399 99.1699L75.5999 114.51L73.9899 119.51L56.8899 120.27L70.2499 131L68.6399 136L43.8899 136.93L45.4799 132L63.6899 131.45L49.3499 120.08L50.7599 115.73L69.0899 115.09L54.6399 103.77L56.1399 99.1699Z" fill="white"/>
<path d="M82.71 101.301C80.7742 102.073 78.6603 102.284 76.61 101.911C74.4866 101.52 72.5094 100.559 70.89 99.1307C69.2333 97.7829 67.975 96.0095 67.25 94.0007C66.5608 92.0378 66.4361 89.9209 66.89 87.8907C67.3886 85.7278 68.4198 83.7237 69.89 82.0607C71.3034 80.3391 73.1303 79.0042 75.2 78.1807C77.1281 77.4074 79.2342 77.1892 81.28 77.5507C83.3924 77.9766 85.3609 78.935 86.999 80.335C88.6371 81.7351 89.8904 83.5304 90.64 85.5507C91.3136 87.4891 91.4382 89.576 91 91.5807C90.4792 93.7354 89.4595 95.7377 88.023 97.426C86.5865 99.1143 84.7735 100.442 82.73 101.301H82.71ZM86.13 89.3007C85.8374 87.392 84.8684 85.6521 83.3998 84.3983C81.9313 83.1445 80.0609 82.4604 78.13 82.4707C76.2926 82.6535 74.5974 83.5409 73.4004 84.9468C72.2033 86.3527 71.5975 88.1677 71.71 90.0107C72.0199 91.9116 72.9938 93.641 74.4586 94.8915C75.9233 96.142 77.784 96.8327 79.71 96.8407C81.5503 96.6652 83.25 95.7798 84.4485 94.3722C85.647 92.9646 86.2501 91.1455 86.13 89.3007Z" fill="white"/>
<path d="M102.43 81.9006C100.339 82.0119 98.2589 81.5301 96.4299 80.5106C94.5767 79.4302 93.0469 77.8729 91.9999 76.0006C90.8668 74.1689 90.2516 72.0642 90.2199 69.9106C90.2087 67.833 90.7766 65.7934 91.8599 64.0206C93.0134 62.1327 94.6226 60.5647 96.5399 59.4606C98.4334 58.2799 100.592 57.5923 102.82 57.4606C104.909 57.3442 106.988 57.8191 108.82 58.8306C110.665 59.9356 112.199 61.4903 113.28 63.3492C114.36 65.2082 114.952 67.3108 115 69.4606C115.022 71.5445 114.457 73.5927 113.37 75.3706C112.182 77.2503 110.566 78.8219 108.654 79.9569C106.742 81.0919 104.589 81.758 102.37 81.9006H102.43ZM109.53 71.6906C109.851 69.7942 109.485 67.8454 108.497 66.1953C107.509 64.5452 105.963 63.3023 104.14 62.6906C102.341 62.2655 100.447 62.5569 98.8587 63.5031C97.2705 64.4493 96.1126 65.9761 95.6299 67.7606C95.3217 69.6529 95.6914 71.5933 96.6738 73.2398C97.6562 74.8862 99.1882 76.1331 101 76.7606C101.886 77.0033 102.813 77.0566 103.721 76.917C104.629 76.7775 105.498 76.4482 106.27 75.9506C107.08 75.5068 107.789 74.8986 108.35 74.165C108.911 73.4314 109.313 72.5886 109.53 71.6906Z" fill="white"/>
<path d="M139.85 35.75L146 67.45L140.87 68.45L140.3 65.45C139.635 66.6919 138.673 67.75 137.5 68.53C136.245 69.3456 134.841 69.9062 133.37 70.18C131.307 70.6084 129.169 70.5017 127.16 69.87C125.238 69.2587 123.53 68.1102 122.24 66.56C120.89 64.8588 119.968 62.8581 119.552 60.7263C119.136 58.5945 119.238 56.394 119.85 54.31C120.475 52.3951 121.63 50.6962 123.18 49.41C124.802 48.0716 126.74 47.1728 128.81 46.8C130.23 46.5255 131.69 46.5255 133.11 46.8C134.445 47.0606 135.697 47.6404 136.76 48.49L134.48 36.78L139.85 35.75ZM136.44 64C137.359 63.2052 138.032 62.1643 138.38 61C138.775 59.7267 138.834 58.3727 138.55 57.07C138.322 55.7538 137.761 54.5178 136.92 53.48C136.152 52.5541 135.141 51.8614 134 51.48C132.825 51.1116 131.577 51.0422 130.369 51.2779C129.16 51.5136 128.03 52.0471 127.08 52.83C126.135 53.6138 125.44 54.6565 125.08 55.83C124.714 57.1099 124.655 58.4581 124.909 59.7649C125.162 61.0718 125.721 62.3001 126.54 63.35C127.31 64.2731 128.321 64.9653 129.46 65.35C130.643 65.7263 131.902 65.7999 133.122 65.564C134.341 65.3282 135.482 64.7905 136.44 64Z" fill="white"/>
<path d="M154.47 67.5309C152.992 66.9852 151.619 66.1903 150.41 65.1809L153 61.3109C154.07 62.1873 155.267 62.8954 156.55 63.4109C157.9 63.9833 159.324 64.3604 160.78 64.5309C164.007 64.9109 165.72 64.2442 165.92 62.5309C165.977 62.157 165.911 61.7747 165.73 61.4424C165.549 61.1101 165.265 60.8461 164.92 60.6909C163.659 60.1203 162.346 59.6716 161 59.3509C159.453 58.9538 157.938 58.439 156.47 57.8109C155.318 57.3075 154.321 56.5068 153.58 55.4909C152.773 54.2983 152.465 52.8378 152.72 51.4209C152.817 50.3818 153.174 49.3841 153.76 48.5204C154.346 47.6568 155.14 46.9552 156.07 46.4809C158.442 45.3212 161.118 44.9364 163.72 45.3809C165.319 45.569 166.892 45.9346 168.41 46.4709C169.743 46.902 170.999 47.5434 172.13 48.3709L169.58 52.2409C167.712 50.8364 165.495 49.9716 163.17 49.7409C161.932 49.5195 160.658 49.6193 159.47 50.0309C159.087 50.1541 158.745 50.3826 158.486 50.6902C158.226 50.9979 158.057 51.3723 158 51.7709C157.941 52.1798 158.018 52.5967 158.218 52.9579C158.418 53.3191 158.732 53.6046 159.11 53.7709C160.389 54.4021 161.729 54.9014 163.11 55.2609C164.617 55.6628 166.094 56.1708 167.53 56.7809C168.637 57.275 169.603 58.0382 170.34 59.0009C171.12 60.1595 171.417 61.5764 171.17 62.9509C171.067 63.9869 170.699 64.9791 170.102 65.8319C169.505 66.6848 168.698 67.3697 167.76 67.8209C165.302 68.9661 162.552 69.3324 159.88 68.8709C158.024 68.6728 156.204 68.222 154.47 67.5309Z" fill="white"/>
<path d="M188.34 75.2506C187.504 75.5163 186.623 75.6082 185.75 75.5206C184.775 75.4298 183.816 75.2078 182.9 74.8606C180.827 74.2176 179.094 72.7792 178.08 70.8606C177.669 69.8753 177.468 68.8153 177.488 67.748C177.509 66.6807 177.751 65.6293 178.2 64.6606L182.2 54.2006L178.62 52.8406L180.17 48.7806L183.75 50.1406L185.64 45.1406L190.72 47.0806L188.84 52.0806L194.66 54.2906L193.11 58.3606L187.29 56.1506L183.33 66.5006C182.939 67.3523 182.885 68.3209 183.18 69.2106C183.365 69.6102 183.631 69.9669 183.962 70.2579C184.293 70.5488 184.68 70.7678 185.1 70.9006C186.111 71.3239 187.237 71.3875 188.29 71.0806L188.34 75.2506Z" fill="white"/>
<path d="M195.19 79.319C194.285 77.4569 193.917 75.3787 194.13 73.319C194.375 71.175 195.194 69.1368 196.5 67.419C197.741 65.6625 199.439 64.2792 201.41 63.419C203.317 62.5975 205.416 62.3239 207.47 62.629C209.658 62.9889 211.731 63.8602 213.519 65.1722C215.307 66.4841 216.76 68.1996 217.76 70.179C218.665 72.0415 219.032 74.1194 218.82 76.179C218.577 78.2956 217.764 80.3068 216.47 81.999C215.216 83.7508 213.513 85.1325 211.54 85.999C209.631 86.8267 207.529 87.1071 205.47 86.809C203.268 86.4762 201.184 85.596 199.41 84.249C197.612 82.986 196.161 81.2905 195.19 79.319ZM207.35 81.869C209.24 81.4476 210.913 80.3549 212.059 78.7936C213.205 77.2324 213.745 75.3085 213.58 73.379C213.27 71.5539 212.261 69.9213 210.768 68.8273C209.275 67.7334 207.414 67.2641 205.58 67.519C204.634 67.7019 203.734 68.0699 202.931 68.6019C202.127 69.1339 201.437 69.8194 200.9 70.619C200.294 71.3702 199.845 72.2349 199.579 73.1623C199.313 74.0897 199.235 75.0611 199.35 76.019C199.662 77.8423 200.672 79.4725 202.165 80.5644C203.658 81.6563 205.518 82.1242 207.35 81.869Z" fill="white"/>
<path d="M241.47 99.9209C241.05 102.348 239.447 104.508 236.66 106.401L225.66 113.891L222.6 109.391L233.03 102.291C234.474 101.463 235.547 100.114 236.03 98.5209C236.175 97.7821 236.16 97.0209 235.988 96.2881C235.816 95.5553 235.489 94.8676 235.03 94.2709C234.577 93.523 233.974 92.8778 233.257 92.3768C232.541 91.8757 231.728 91.5297 230.87 91.3609C228.982 91.139 227.083 91.6749 225.59 92.8509L215.87 99.4609L212.77 95.0009L232 81.8809L234.91 86.1709L232.42 87.8609C233.83 88.0045 235.181 88.4997 236.35 89.3009C237.65 90.195 238.764 91.3326 239.63 92.6509C240.404 93.6799 240.965 94.8527 241.281 96.1009C241.597 97.349 241.661 98.6476 241.47 99.9209Z" fill="white"/>
<path d="M243.24 138.489L238.58 120.849C237.071 121.529 235.887 122.77 235.28 124.309C234.652 125.991 234.595 127.832 235.12 129.549C235.375 130.686 235.862 131.757 236.55 132.697C237.238 133.636 238.113 134.423 239.12 135.009L236.62 138.689C235.13 137.981 233.841 136.912 232.87 135.579C231.791 134.075 231.01 132.378 230.57 130.579C229.923 128.331 229.838 125.958 230.32 123.669C230.776 121.605 231.818 119.717 233.32 118.229C234.87 116.748 236.768 115.681 238.839 115.127C240.91 114.573 243.087 114.549 245.17 115.059C247.156 115.571 248.958 116.631 250.37 118.119C251.854 119.687 252.905 121.613 253.42 123.709C253.996 125.752 254.031 127.909 253.52 129.969C253.023 131.922 251.983 133.694 250.52 135.079C248.912 136.568 246.95 137.622 244.82 138.139C244.45 138.259 243.93 138.369 243.24 138.489ZM246.6 120.999C245.272 120.09 243.654 119.709 242.06 119.929L245.43 132.679C246.916 132.106 248.133 130.996 248.84 129.569C249.554 128.11 249.693 126.436 249.23 124.879C248.855 123.309 247.92 121.929 246.6 120.999Z" fill="white"/>
</g>
<defs>
<clipPath id="clip0">
<rect width="301.5" height="301.5" fill="white"/>
</clipPath>
</defs>
</svg>
