<svg width="57" height="57" viewBox="0 0 57 57" fill="none" xmlns="http://www.w3.org/2000/svg">
<rect width="57" height="57" rx="10" fill="#F0F0F0"/>
<path d="M36.1831 25.2508C36.0103 24.6082 35.5036 24.1016 34.8611 23.9286C33.6873 23.6074 28.992 23.6074 28.992 23.6074C28.992 23.6074 24.2969 23.6074 23.1231 23.9164C22.493 24.0893 21.9739 24.6083 21.8011 25.2508C21.4922 26.4245 21.4922 28.8586 21.4922 28.8586C21.4922 28.8586 21.4922 31.305 21.8011 32.4664C21.9741 33.1089 22.4806 33.6155 23.1232 33.7885C24.3093 34.1098 28.9922 34.1098 28.9922 34.1098C28.9922 34.1098 33.6873 34.1098 34.8611 33.8008C35.5037 33.6279 36.0103 33.1213 36.1833 32.4788C36.4921 31.305 36.4921 28.871 36.4921 28.871C36.4921 28.871 36.5045 26.4245 36.1831 25.2508ZM27.4971 31.1073V26.6099L31.4015 28.8586L27.4971 31.1073Z" fill="#828282"/>
</svg>
